<svg width="20" height="20" viewBox="0 0 20 20" fill="none" xmlns="http://www.w3.org/2000/svg">
<path fill-rule="evenodd" clip-rule="evenodd" d="M13.6241 7.56549C14.4317 7.49927 15.3361 7.96723 15.5729 8.98219C15.6071 9.12912 15.7756 9.19891 15.9038 9.11925C17.5585 8.0906 19.4685 10.0007 18.4399 11.6554C18.3602 11.7835 18.43 11.952 18.5769 11.9863C20.4744 12.429 20.4744 15.1302 18.5769 15.5729C18.43 15.6071 18.3602 15.7756 18.4399 15.9038C19.4685 17.5585 17.5585 19.4685 15.9038 18.4399C15.7756 18.3602 15.6071 18.43 15.5729 18.5769C15.1302 20.4744 12.429 20.4744 11.9863 18.5769C11.952 18.43 11.7835 18.3602 11.6554 18.4399C10.0007 19.4685 8.09062 17.5585 9.11927 15.9038C9.19892 15.7756 9.12913 15.6071 8.9822 15.5729C7.96726 15.3361 7.4993 14.4318 7.5655 13.6241C7.59582 13.2542 7.8735 12.9521 8.23955 12.8909C10.6157 12.4932 12.4932 10.6157 12.8909 8.23954C12.9521 7.87349 13.2542 7.59581 13.6241 7.56549ZM14.154 9.78484C13.9466 10.3561 13.67 10.8941 13.3342 11.3886C13.4786 11.3618 13.6274 11.3479 13.7796 11.3479C15.1226 11.3479 16.2113 12.4366 16.2113 13.7796C16.2113 15.1225 15.1226 16.2113 13.7796 16.2113C12.4366 16.2113 11.3479 15.1225 11.3479 13.7796C11.3479 13.6274 11.3619 13.4786 11.3886 13.3342C10.8941 13.67 10.3561 13.9466 9.78487 14.154C10.7062 14.6319 11.0775 15.8244 10.496 16.7596C10.4536 16.8279 10.4531 16.8735 10.4576 16.9033C10.4635 16.9417 10.4849 16.9893 10.5274 17.0318C10.5698 17.0742 10.6175 17.0957 10.6559 17.1015C10.6856 17.1061 10.7312 17.1055 10.7995 17.0631C11.8704 16.3974 13.2785 16.9806 13.565 18.2086C13.5833 18.2869 13.6151 18.3195 13.6394 18.3373C13.6707 18.3604 13.7195 18.3789 13.7796 18.3789C13.8396 18.3789 13.8885 18.3604 13.9198 18.3373C13.944 18.3195 13.9759 18.2869 13.9941 18.2086C14.2806 16.9806 15.6887 16.3974 16.7596 17.0631C16.8279 17.1055 16.8735 17.1061 16.9033 17.1015C16.9417 17.0957 16.9893 17.0742 17.0318 17.0318C17.0742 16.9893 17.0957 16.9417 17.1015 16.9033C17.1061 16.8735 17.1055 16.8279 17.0631 16.7596C16.3974 15.6887 16.9806 14.2806 18.2086 13.9941C18.2869 13.9759 18.3195 13.944 18.3373 13.9198C18.3604 13.8885 18.3789 13.8396 18.3789 13.7796C18.3789 13.7195 18.3604 13.6707 18.3373 13.6394C18.3195 13.6151 18.2869 13.5833 18.2086 13.565C16.9806 13.2785 16.3974 11.8704 17.0631 10.7995C17.1055 10.7312 17.1061 10.6856 17.1015 10.6559C17.0957 10.6175 17.0742 10.5698 17.0318 10.5274C16.9893 10.4849 16.9417 10.4634 16.9033 10.4576C16.8735 10.4531 16.8279 10.4536 16.7596 10.496C15.8244 11.0774 14.6319 10.7062 14.154 9.78484ZM13.7796 12.969C13.3319 12.969 12.969 13.3319 12.969 13.7796C12.969 14.2272 13.3319 14.5901 13.7796 14.5901C14.2272 14.5901 14.5901 14.2272 14.5901 13.7796C14.5901 13.3319 14.2272 12.969 13.7796 12.969Z" fill="#C4C4C4"/>
<path fill-rule="evenodd" clip-rule="evenodd" d="M7.29506 1.62113C4.16143 1.62113 1.62112 4.16143 1.62112 7.29506C1.62112 10.4287 4.16143 12.969 7.29506 12.969C10.4287 12.969 12.969 10.4287 12.969 7.29506C12.969 4.16143 10.4287 1.62113 7.29506 1.62113ZM0 7.29506C0 3.26611 3.26611 0 7.29506 0C11.324 0 14.5901 3.26611 14.5901 7.29506C14.5901 11.324 11.324 14.5901 7.29506 14.5901C3.26611 14.5901 0 11.324 0 7.29506Z" fill="#C4C4C4"/>
<path fill-rule="evenodd" clip-rule="evenodd" d="M7.29506 3.24225C7.74272 3.24225 8.10562 3.60515 8.10562 4.05281V6.95932L10.2999 9.1536C10.6164 9.47014 10.6164 9.98336 10.2999 10.2999C9.98335 10.6165 9.47013 10.6165 9.15359 10.2999L6.7219 7.86822C6.56989 7.71621 6.48449 7.51004 6.48449 7.29506V4.05281C6.48449 3.60515 6.84739 3.24225 7.29506 3.24225Z" fill="#C4C4C4"/>
</svg>
